<svg viewBox="0 0 14.0156 16" xmlns="http://www.w3.org/2000/svg" xmlns:xlink="http://www.w3.org/1999/xlink" width="14.015625" height="16.000000" fill="none" customFrame="#000000">
	<path id="ï " d="M8.03125 14.9375C8.34375 14.625 8.3125 14.1562 8.03125 13.8438L4.25 10.25L13.25 10.25C13.6562 10.25 14 9.9375 14 9.5L14 8.5C14 8.09375 13.6562 7.75 13.25 7.75L4.25 7.75L8.03125 4.1875C8.3125 3.875 8.34375 3.40625 8.03125 3.09375L7.34375 2.40625C7.0625 2.125 6.5625 2.125 6.28125 2.40625L0.21875 8.5C-0.09375 8.78125 -0.09375 9.25 0.21875 9.53125L6.28125 15.625C6.5625 15.9062 7.03125 15.9062 7.34375 15.625L8.03125 14.9375Z" fill="rgb(255,255,255)" fill-rule="nonzero" transform="matrix(-1,1.22465e-16,-1.22465e-16,-1,14,16)" />
</svg>
