<svg viewBox="0 0 20.25 15" xmlns="http://www.w3.org/2000/svg" xmlns:xlink="http://www.w3.org/1999/xlink" width="20.250000" height="15.000000" fill="none" customFrame="#000000">
	<path id="" d="M8.15625 6.86719C9.24609 6.30469 9.84375 5.49609 9.84375 4.26562C9.84375 1.76953 7.98047 1.17188 5.87109 1.17188L0 1.17188L0 13.6172L6.01172 13.6172C8.29688 13.6172 10.4062 12.5273 10.4062 9.99609C10.4062 8.44922 9.66797 7.28906 8.15625 6.86719ZM2.70703 3.28125L5.30859 3.28125C6.29297 3.28125 7.17188 3.5625 7.17188 4.72266C7.17188 5.77734 6.46875 6.19922 5.48438 6.19922L2.70703 6.19922L2.70703 3.28125ZM5.66016 11.5078L2.70703 11.5078L2.70703 8.0625L5.69531 8.0625C6.92578 8.0625 7.66406 8.58984 7.66406 9.85547C7.66406 11.1211 6.75 11.5078 5.66016 11.5078ZM18.2461 3.03516L18.2461 1.80469L13.2188 1.80469L13.2188 3.03516L18.2461 3.03516ZM20.25 9.25781C20.25 6.58594 18.668 4.33594 15.8555 4.33594C13.0781 4.33594 11.2148 6.41016 11.2148 9.11719C11.2148 11.9297 13.0078 13.8633 15.8555 13.8633C18 13.8633 19.4062 12.8789 20.0742 10.8398L17.8945 10.8398C17.6484 11.6133 16.6641 12 15.9258 12C14.4844 12 13.7109 11.1562 13.7109 9.71484L20.2148 9.71484C20.2148 9.57422 20.25 9.39844 20.25 9.25781ZM13.7109 8.13281C13.7812 6.97266 14.5898 6.23438 15.75 6.23438C17.0156 6.23438 17.6484 6.9375 17.7539 8.13281L13.7109 8.13281Z" fill="rgb(255,255,255)" fill-rule="nonzero" />
</svg>
