<svg viewBox="0 0 20 15.75" xmlns="http://www.w3.org/2000/svg" xmlns:xlink="http://www.w3.org/1999/xlink" width="20.000000" height="15.750000" fill="none" customFrame="#000000">
	<path id="" d="M10 3.81445C7.75 3.81445 5.95703 5.64258 5.95703 7.85742C5.95703 10.1074 7.75 11.9004 10 11.9004C12.2148 11.9004 14.043 10.1074 14.043 7.85742C14.043 5.64258 12.2148 3.81445 10 3.81445ZM10 10.4941C8.55859 10.4941 7.36328 9.33398 7.36328 7.85742C7.36328 6.41602 8.52344 5.25586 10 5.25586C11.4414 5.25586 12.6016 6.41602 12.6016 7.85742C12.6016 9.33398 11.4414 10.4941 10 10.4941ZM15.1328 3.67383C15.1328 3.14648 14.7109 2.72461 14.1836 2.72461C13.6562 2.72461 13.2344 3.14648 13.2344 3.67383C13.2344 4.20117 13.6562 4.62305 14.1836 4.62305C14.7109 4.62305 15.1328 4.20117 15.1328 3.67383ZM17.8047 4.62305C17.7344 3.35742 17.4531 2.23242 16.5391 1.31836C15.625 0.404297 14.5 0.123047 13.2344 0.0527344C11.9336 -0.0175781 8.03125 -0.0175781 6.73047 0.0527344C5.46484 0.123047 4.375 0.404297 3.42578 1.31836C2.51172 2.23242 2.23047 3.35742 2.16016 4.62305C2.08984 5.92383 2.08984 9.82617 2.16016 11.127C2.23047 12.3926 2.51172 13.4824 3.42578 14.4316C4.375 15.3457 5.46484 15.627 6.73047 15.6973C8.03125 15.7676 11.9336 15.7676 13.2344 15.6973C14.5 15.627 15.625 15.3457 16.5391 14.4316C17.4531 13.4824 17.7344 12.3926 17.8047 11.127C17.875 9.82617 17.875 5.92383 17.8047 4.62305ZM16.1172 12.498C15.8711 13.2012 15.3086 13.7285 14.6406 14.0098C13.5859 14.4316 11.125 14.3262 10 14.3262C8.83984 14.3262 6.37891 14.4316 5.35938 14.0098C4.65625 13.7285 4.12891 13.2012 3.84766 12.498C3.42578 11.4785 3.53125 9.01758 3.53125 7.85742C3.53125 6.73242 3.42578 4.27148 3.84766 3.2168C4.12891 2.54883 4.65625 2.02148 5.35938 1.74023C6.37891 1.31836 8.83984 1.42383 10 1.42383C11.125 1.42383 13.5859 1.31836 14.6406 1.74023C15.3086 1.98633 15.8359 2.54883 16.1172 3.2168C16.5391 4.27148 16.4336 6.73242 16.4336 7.85742C16.4336 9.01758 16.5391 11.4785 16.1172 12.498Z" fill="rgb(255,255,255)" fill-rule="nonzero" />
</svg>
