<svg viewBox="0 0 22 23" xmlns="http://www.w3.org/2000/svg" xmlns:xlink="http://www.w3.org/1999/xlink" width="22.000000" height="23.000000" fill="none" customFrame="#000000">
	<path id="" d="M6.64062 19.25L6.64062 8.73828L3.37109 8.73828L3.37109 19.25L6.64062 19.25ZM4.98828 7.33203C6.04297 7.33203 6.88672 6.45312 6.88672 5.39844C6.88672 4.37891 6.04297 3.53516 4.98828 3.53516C3.96875 3.53516 3.125 4.37891 3.125 5.39844C3.125 6.45312 3.96875 7.33203 4.98828 7.33203ZM18.8398 19.25L18.875 19.25L18.875 13.4844C18.875 10.6719 18.2422 8.49219 14.9375 8.49219C13.3555 8.49219 12.3008 9.37109 11.8438 10.1797L11.8086 10.1797L11.8086 8.73828L8.67969 8.73828L8.67969 19.25L11.9492 19.25L11.9492 14.0469C11.9492 12.6758 12.1953 11.375 13.8828 11.375C15.5703 11.375 15.6055 12.9219 15.6055 14.1523L15.6055 19.25L18.8398 19.25Z" fill="rgb(255,255,255)" fill-rule="nonzero" />
</svg>
