<svg viewBox="0 0 40 38.125" xmlns="http://www.w3.org/2000/svg" xmlns:xlink="http://www.w3.org/1999/xlink" width="40.000000" height="38.125000" fill="none" customFrame="#000000">
	<path id="" d="M34.4375 -0.625L24.9375 -0.625C22.9336 -0.625 21.375 1.00781 21.375 2.9375L21.375 12.4375C21.375 14.4414 22.9336 16 24.9375 16L30.875 16L30.875 20.75C30.875 23.4219 28.7227 25.5 26.125 25.5L25.5312 25.5C24.4922 25.5 23.75 26.3164 23.75 27.2812L23.75 30.8438C23.75 31.8828 24.4922 32.625 25.5312 32.625L26.125 32.625C32.6562 32.625 38 27.3555 38 20.75L38 2.9375C38 1.00781 36.3672 -0.625 34.4375 -0.625ZM13.0625 -0.625L3.5625 -0.625C1.55859 -0.625 0 1.00781 0 2.9375L0 12.4375C0 14.4414 1.55859 16 3.5625 16L9.5 16L9.5 20.75C9.5 23.4219 7.34766 25.5 4.75 25.5L4.15625 25.5C3.11719 25.5 2.375 26.3164 2.375 27.2812L2.375 30.8438C2.375 31.8828 3.11719 32.625 4.15625 32.625L4.75 32.625C11.2812 32.625 16.625 27.3555 16.625 20.75L16.625 2.9375C16.625 1.00781 14.9922 -0.625 13.0625 -0.625Z" fill="rgb(254,70,28)" fill-rule="nonzero" transform="matrix(-1,-1.22465e-16,1.22465e-16,-1,40,37.5)" />
</svg>
